<svg xmlns="http://www.w3.org/2000/svg" width="27" height="24" fill="none" viewBox="0 0 27 24" class="mr-1">
    <path fill="#FF9B00" d="M7.172.754c-.488-.376-.837-.18-.758.439.2 1.296.628 2.547 1.263 3.695.54.934 1.438 1.426 2.008 1.097.57-.33.594-1.354.055-2.282A11.1 11.1 0 0 0 7.174.772"></path>
    <path fill="#65A0FF" d="M19.14 23.247c.49.375.838.178.758-.438a11.1 11.1 0 0 0-1.26-3.697c-.54-.932-1.44-1.424-2.01-1.093s-.594 1.352-.055 2.28a11.1 11.1 0 0 0 2.568 2.942"></path>
    <path fill="#3DD29E" d="M6.413 22.81c-.078.618.264.815.76.439a11.1 11.1 0 0 0 2.566-2.941c.539-.934.514-1.955-.056-2.281s-1.465.163-2.008 1.093a11.2 11.2 0 0 0-1.262 3.69"></path>
    <path fill="#F40000" d="M19.898 1.193c.08-.62-.262-.815-.757-.439a11.1 11.1 0 0 0-2.568 2.933c-.54.935-.515 1.955.055 2.281s1.466-.163 2.01-1.096a11.1 11.1 0 0 0 1.26-3.694"></path>
    <path fill="#A700A9" d="M25.882 12.438c.573-.241.573-.635 0-.876a11.1 11.1 0 0 0-3.828-.755c-1.08 0-1.954.534-1.954 1.193 0 .658.874 1.193 1.954 1.193 1.31-.024 2.606-.28 3.828-.755"></path>
    <path fill="#DADF00" d="M.431 11.568c-.575.241-.575.636 0 .877 1.221.474 2.517.73 3.827.752 1.078 0 1.954-.534 1.954-1.192 0-.659-.875-1.193-1.954-1.193-1.31.024-2.606.28-3.827.756"></path>
    <path fill="#FF6B0A" d="M13.595.43c-.242-.573-.636-.573-.877 0 0 0-1.278 3.047-1.278 5.977 0 1.556.767 2.817 1.717 2.817.949 0 1.716-1.261 1.716-2.817 0-2.933-1.278-5.977-1.278-5.977"></path>
    <path fill="#0BCCEF" d="M12.725 23.57c.241.573.635.573.876 0 0 0 1.278-3.047 1.278-5.977 0-1.556-.767-2.815-1.716-2.815-.95 0-1.723 1.26-1.723 2.819 0 2.932 1.278 5.976 1.278 5.976"></path>
    <path fill="#ADDC0E" d="M2.922 17.406c-.376.489-.179.836.44.758 0 0 3.276-.416 5.812-1.879 1.346-.777 2.053-2.074 1.577-2.897-.475-.823-1.954-.857-3.294-.08-2.535 1.467-4.535 4.098-4.535 4.098"></path>
    <path fill="#FF3597" d="M23.39 6.595c.375-.488.178-.837-.439-.759 0 0-3.276.416-5.812 1.88-1.346.778-2.053 2.075-1.58 2.896.475.82 1.955.858 3.297.08 2.535-1.467 4.533-4.097 4.533-4.097"></path>
    <path fill="#9572FF" d="M22.951 18.164c.617.078.814-.264.438-.758 0 0-1.998-2.631-4.533-4.098-1.347-.777-2.82-.741-3.296.08-.475.821.231 2.118 1.578 2.896 2.535 1.466 5.813 1.88 5.813 1.88"></path>
    <path fill="#FD0" d="M3.362 5.836c-.619-.078-.814.264-.438.76 0 0 1.998 2.631 4.532 4.096 1.345.777 2.82.743 3.294-.082.474-.824-.231-2.118-1.578-2.893C6.638 6.25 3.36 5.837 3.36 5.837"></path>
</svg>